<svg>
    <symbol id="logo" width="163" height="21" viewBox="0 0 163 21" xmlns="http://www.w3.org/2000/svg">
        <path d="M23.4668 2.37841C23.4668 1.23999 24.3897 0.317123 25.5281 0.317123C26.6665 0.317123 27.5894 1.23999 27.5894 2.37841V18.2344C27.5894 19.3729 26.6665 20.2957 25.5281 20.2957C24.3897 20.2957 23.4668 19.3729 23.4668 18.2344V2.37841Z" fill="#FAFF01"/>
        <path d="M25.5281 4.43968C24.3897 4.43968 23.4668 3.51681 23.4668 2.3784C23.4668 1.23998 24.3897 0.317115 25.5281 0.317115L37.7372 0.317114C40.0141 0.317114 41.8598 2.16285 41.8598 4.43968L25.5281 4.43968Z" fill="#FAFF01"/>
        <path d="M23.4668 15.856C23.4668 13.5792 25.3125 11.7335 27.5894 11.7335L39.7985 11.7335C40.9369 11.7335 41.8598 12.6563 41.8598 13.7947C41.8598 14.9331 40.9369 15.856 39.7985 15.856L23.4668 15.856Z" fill="#FAFF01"/>
        <path d="M37.7373 0.317116L39.7986 0.317116C40.937 0.317116 41.8599 1.23998 41.8599 2.3784V13.7947C41.8599 14.9332 40.937 15.856 39.7986 15.856H37.7373V0.317116Z" fill="#FAFF01"/>
        <path d="M87.6838 4.43968C86.5454 4.43968 85.6226 3.51681 85.6226 2.3784C85.6226 1.23998 86.5454 0.317115 87.6838 0.317115L101.954 0.317114C103.093 0.317114 104.016 1.23998 104.016 2.3784C104.016 3.51681 103.093 4.43968 101.954 4.43968L87.6838 4.43968Z" fill="#FAFF01"/>
        <path d="M87.6838 20.2957C86.5454 20.2957 85.6226 19.3728 85.6226 18.2344C85.6226 17.096 86.5454 16.1731 87.6838 16.1731L101.954 16.1731C103.093 16.1731 104.016 17.096 104.016 18.2344C104.016 19.3728 103.093 20.2957 101.954 20.2957L87.6838 20.2957Z" fill="#FAFF01"/>
        <path d="M85.6226 2.37841C85.6226 1.23999 86.5454 0.317123 87.6838 0.317123C88.8223 0.317123 89.7451 1.23999 89.7451 2.37841V18.2344C89.7451 19.3729 88.8223 20.2957 87.6838 20.2957C86.5454 20.2957 85.6226 19.3729 85.6226 18.2344V2.37841Z" fill="#FAFF01"/>
        <path d="M134.459 2.06128C134.459 0.922869 135.382 0 136.52 0C137.659 0 138.582 0.922868 138.582 2.06128V18.2344C138.582 19.3729 137.659 20.2957 136.52 20.2957C135.382 20.2957 134.459 19.3729 134.459 18.2344V2.06128Z" fill="#FAFF01"/>
        <path d="M112.102 4.43968C110.964 4.43968 110.041 3.51681 110.041 2.3784C110.041 1.23998 110.964 0.317115 112.102 0.317115L126.373 0.317114C127.511 0.317114 128.434 1.23998 128.434 2.3784C128.434 3.51681 127.511 4.43968 126.373 4.43968L112.102 4.43968Z" fill="#FAFF01"/>
        <path d="M117.018 1.90272L121.14 1.90272V18.2344C121.14 19.3728 120.217 20.2957 119.079 20.2957C117.94 20.2957 117.018 19.3728 117.018 18.2344V1.90272Z" fill="#FAFF01"/>
        <path d="M47.8853 4.43968L47.8853 2.3784C47.8853 1.23998 48.8081 0.317115 49.9465 0.317115L77.536 0.317114C78.6744 0.317114 79.5973 1.23998 79.5973 2.3784L79.5973 4.43968L47.8853 4.43968Z" fill="#FAFF01"/>
        <path d="M52.0078 20.2957C49.731 20.2957 47.8852 18.45 47.8852 16.1731L47.8852 4.43969C47.8852 2.16286 49.731 0.317116 52.0078 0.317116L52.0078 20.2957Z" fill="#FAFF01"/>
        <path d="M75.4746 0.317116C77.7514 0.317116 79.5972 2.16286 79.5972 4.43969L79.5972 16.1731C79.5972 18.45 77.7514 20.2957 75.4746 20.2957L75.4746 0.317116Z" fill="#FAFF01"/>
        <path d="M79.5972 16.1731L79.5972 18.2344C79.5972 19.3728 78.6743 20.2957 77.5359 20.2957L49.9464 20.2957C48.808 20.2957 47.8851 19.3728 47.8851 18.2344L47.8851 16.1731L79.5972 16.1731Z" fill="#FAFF01"/>
        <path d="M144.607 2.37841C144.607 1.23999 145.53 0.317123 146.668 0.317123C147.807 0.317123 148.73 1.23999 148.73 2.37841V18.2344C148.73 19.3729 147.807 20.2957 146.668 20.2957C145.53 20.2957 144.607 19.3729 144.607 18.2344V2.37841Z" fill="#FAFF01"/>
        <path d="M144.607 4.43968L144.607 2.3784C144.607 1.23998 145.53 0.317115 146.668 0.317115L160.939 0.317114C162.077 0.317114 163 1.23998 163 2.3784L163 4.43968L144.607 4.43968Z" fill="#FAFF01"/>
        <path d="M144.607 15.856L144.607 11.7335L160.939 11.7335C162.077 11.7335 163 12.6563 163 13.7947C163 14.9331 162.077 15.856 160.939 15.856L144.607 15.856Z" fill="#FAFF01"/>
        <path d="M158.877 2.3784C158.877 1.23998 159.8 0.317116 160.939 0.317116C162.077 0.317116 163 1.23998 163 2.3784V13.7947C163 14.9332 162.077 15.856 160.939 15.856C159.8 15.856 158.877 14.9332 158.877 13.7947V2.3784Z" fill="#FAFF01"/>
        <path d="M0 2.37841C0 1.23999 0.922869 0.317123 2.06128 0.317123H4.12257V18.2344C4.12257 19.3729 3.1997 20.2957 2.06128 20.2957C0.922869 20.2957 0 19.3729 0 18.2344V2.37841Z" fill="#FAFF01"/>
        <path d="M13.3193 0.317116H15.3806C16.519 0.317116 17.4419 1.23998 17.4419 2.3784V18.2344C17.4419 19.3728 16.519 20.2957 15.3806 20.2957C14.2422 20.2957 13.3193 19.3728 13.3193 18.2344V0.317116Z" fill="#FAFF01"/>
        <path d="M0 4.43968C-9.95234e-08 2.16285 1.84574 0.317115 4.12257 0.317115L13.3191 0.317114C15.5959 0.317114 17.4416 2.16285 17.4416 4.43968L0 4.43968Z" fill="#FAFF01"/>
    </symbol>
    <symbol id="catalog" width="24" height="24" viewBox="0 0 24 24" xmlns="http://www.w3.org/2000/svg">
        <path d="M9.33333 13.3333H1.33333C0.979711 13.3333 0.640573 13.4738 0.390524 13.7239C0.140476 13.9739 0 14.313 0 14.6667V22.6667C0 23.0203 0.140476 23.3594 0.390524 23.6095C0.640573 23.8595 0.979711 24 1.33333 24H9.33333C9.68696 24 10.0261 23.8595 10.2761 23.6095C10.5262 23.3594 10.6667 23.0203 10.6667 22.6667V14.6667C10.6667 14.313 10.5262 13.9739 10.2761 13.7239C10.0261 13.4738 9.68696 13.3333 9.33333 13.3333ZM8 21.3333H2.66667V16H8V21.3333ZM22.6667 0H14.6667C14.313 0 13.9739 0.140476 13.7239 0.390524C13.4738 0.640573 13.3333 0.979711 13.3333 1.33333V9.33333C13.3333 9.68696 13.4738 10.0261 13.7239 10.2761C13.9739 10.5262 14.313 10.6667 14.6667 10.6667H22.6667C23.0203 10.6667 23.3594 10.5262 23.6095 10.2761C23.8595 10.0261 24 9.68696 24 9.33333V1.33333C24 0.979711 23.8595 0.640573 23.6095 0.390524C23.3594 0.140476 23.0203 0 22.6667 0ZM21.3333 8H16V2.66667H21.3333V8ZM22.6667 17.3333H20V14.6667C20 14.313 19.8595 13.9739 19.6095 13.7239C19.3594 13.4738 19.0203 13.3333 18.6667 13.3333C18.313 13.3333 17.9739 13.4738 17.7239 13.7239C17.4738 13.9739 17.3333 14.313 17.3333 14.6667V17.3333H14.6667C14.313 17.3333 13.9739 17.4738 13.7239 17.7239C13.4738 17.9739 13.3333 18.313 13.3333 18.6667C13.3333 19.0203 13.4738 19.3594 13.7239 19.6095C13.9739 19.8595 14.313 20 14.6667 20H17.3333V22.6667C17.3333 23.0203 17.4738 23.3594 17.7239 23.6095C17.9739 23.8595 18.313 24 18.6667 24C19.0203 24 19.3594 23.8595 19.6095 23.6095C19.8595 23.3594 20 23.0203 20 22.6667V20H22.6667C23.0203 20 23.3594 19.8595 23.6095 19.6095C23.8595 19.3594 24 19.0203 24 18.6667C24 18.313 23.8595 17.9739 23.6095 17.7239C23.3594 17.4738 23.0203 17.3333 22.6667 17.3333ZM9.33333 0H1.33333C0.979711 0 0.640573 0.140476 0.390524 0.390524C0.140476 0.640573 0 0.979711 0 1.33333V9.33333C0 9.68696 0.140476 10.0261 0.390524 10.2761C0.640573 10.5262 0.979711 10.6667 1.33333 10.6667H9.33333C9.68696 10.6667 10.0261 10.5262 10.2761 10.2761C10.5262 10.0261 10.6667 9.68696 10.6667 9.33333V1.33333C10.6667 0.979711 10.5262 0.640573 10.2761 0.390524C10.0261 0.140476 9.68696 0 9.33333 0ZM8 8H2.66667V2.66667H8V8Z" fill="white"/>
    </symbol>

</svg>
