<svg>
    <symbol id="logo" width="163" height="21" viewBox="0 0 163 21" xmlns="http://www.w3.org/2000/svg">
        <path d="M23.4668 2.37841C23.4668 1.23999 24.3897 0.317123 25.5281 0.317123C26.6665 0.317123 27.5894 1.23999 27.5894 2.37841V18.2344C27.5894 19.3729 26.6665 20.2957 25.5281 20.2957C24.3897 20.2957 23.4668 19.3729 23.4668 18.2344V2.37841Z" fill="#FAFF01"/>
        <path d="M25.5281 4.43968C24.3897 4.43968 23.4668 3.51681 23.4668 2.3784C23.4668 1.23998 24.3897 0.317115 25.5281 0.317115L37.7372 0.317114C40.0141 0.317114 41.8598 2.16285 41.8598 4.43968L25.5281 4.43968Z" fill="#FAFF01"/>
        <path d="M23.4668 15.856C23.4668 13.5792 25.3125 11.7335 27.5894 11.7335L39.7985 11.7335C40.9369 11.7335 41.8598 12.6563 41.8598 13.7947C41.8598 14.9331 40.9369 15.856 39.7985 15.856L23.4668 15.856Z" fill="#FAFF01"/>
        <path d="M37.7373 0.317116L39.7986 0.317116C40.937 0.317116 41.8599 1.23998 41.8599 2.3784V13.7947C41.8599 14.9332 40.937 15.856 39.7986 15.856H37.7373V0.317116Z" fill="#FAFF01"/>
        <path d="M87.6838 4.43968C86.5454 4.43968 85.6226 3.51681 85.6226 2.3784C85.6226 1.23998 86.5454 0.317115 87.6838 0.317115L101.954 0.317114C103.093 0.317114 104.016 1.23998 104.016 2.3784C104.016 3.51681 103.093 4.43968 101.954 4.43968L87.6838 4.43968Z" fill="#FAFF01"/>
        <path d="M87.6838 20.2957C86.5454 20.2957 85.6226 19.3728 85.6226 18.2344C85.6226 17.096 86.5454 16.1731 87.6838 16.1731L101.954 16.1731C103.093 16.1731 104.016 17.096 104.016 18.2344C104.016 19.3728 103.093 20.2957 101.954 20.2957L87.6838 20.2957Z" fill="#FAFF01"/>
        <path d="M85.6226 2.37841C85.6226 1.23999 86.5454 0.317123 87.6838 0.317123C88.8223 0.317123 89.7451 1.23999 89.7451 2.37841V18.2344C89.7451 19.3729 88.8223 20.2957 87.6838 20.2957C86.5454 20.2957 85.6226 19.3729 85.6226 18.2344V2.37841Z" fill="#FAFF01"/>
        <path d="M134.459 2.06128C134.459 0.922869 135.382 0 136.52 0C137.659 0 138.582 0.922868 138.582 2.06128V18.2344C138.582 19.3729 137.659 20.2957 136.52 20.2957C135.382 20.2957 134.459 19.3729 134.459 18.2344V2.06128Z" fill="#FAFF01"/>
        <path d="M112.102 4.43968C110.964 4.43968 110.041 3.51681 110.041 2.3784C110.041 1.23998 110.964 0.317115 112.102 0.317115L126.373 0.317114C127.511 0.317114 128.434 1.23998 128.434 2.3784C128.434 3.51681 127.511 4.43968 126.373 4.43968L112.102 4.43968Z" fill="#FAFF01"/>
        <path d="M117.018 1.90272L121.14 1.90272V18.2344C121.14 19.3728 120.217 20.2957 119.079 20.2957C117.94 20.2957 117.018 19.3728 117.018 18.2344V1.90272Z" fill="#FAFF01"/>
        <path d="M47.8853 4.43968L47.8853 2.3784C47.8853 1.23998 48.8081 0.317115 49.9465 0.317115L77.536 0.317114C78.6744 0.317114 79.5973 1.23998 79.5973 2.3784L79.5973 4.43968L47.8853 4.43968Z" fill="#FAFF01"/>
        <path d="M52.0078 20.2957C49.731 20.2957 47.8852 18.45 47.8852 16.1731L47.8852 4.43969C47.8852 2.16286 49.731 0.317116 52.0078 0.317116L52.0078 20.2957Z" fill="#FAFF01"/>
        <path d="M75.4746 0.317116C77.7514 0.317116 79.5972 2.16286 79.5972 4.43969L79.5972 16.1731C79.5972 18.45 77.7514 20.2957 75.4746 20.2957L75.4746 0.317116Z" fill="#FAFF01"/>
        <path d="M79.5972 16.1731L79.5972 18.2344C79.5972 19.3728 78.6743 20.2957 77.5359 20.2957L49.9464 20.2957C48.808 20.2957 47.8851 19.3728 47.8851 18.2344L47.8851 16.1731L79.5972 16.1731Z" fill="#FAFF01"/>
        <path d="M144.607 2.37841C144.607 1.23999 145.53 0.317123 146.668 0.317123C147.807 0.317123 148.73 1.23999 148.73 2.37841V18.2344C148.73 19.3729 147.807 20.2957 146.668 20.2957C145.53 20.2957 144.607 19.3729 144.607 18.2344V2.37841Z" fill="#FAFF01"/>
        <path d="M144.607 4.43968L144.607 2.3784C144.607 1.23998 145.53 0.317115 146.668 0.317115L160.939 0.317114C162.077 0.317114 163 1.23998 163 2.3784L163 4.43968L144.607 4.43968Z" fill="#FAFF01"/>
        <path d="M144.607 15.856L144.607 11.7335L160.939 11.7335C162.077 11.7335 163 12.6563 163 13.7947C163 14.9331 162.077 15.856 160.939 15.856L144.607 15.856Z" fill="#FAFF01"/>
        <path d="M158.877 2.3784C158.877 1.23998 159.8 0.317116 160.939 0.317116C162.077 0.317116 163 1.23998 163 2.3784V13.7947C163 14.9332 162.077 15.856 160.939 15.856C159.8 15.856 158.877 14.9332 158.877 13.7947V2.3784Z" fill="#FAFF01"/>
        <path d="M0 2.37841C0 1.23999 0.922869 0.317123 2.06128 0.317123H4.12257V18.2344C4.12257 19.3729 3.1997 20.2957 2.06128 20.2957C0.922869 20.2957 0 19.3729 0 18.2344V2.37841Z" fill="#FAFF01"/>
        <path d="M13.3193 0.317116H15.3806C16.519 0.317116 17.4419 1.23998 17.4419 2.3784V18.2344C17.4419 19.3728 16.519 20.2957 15.3806 20.2957C14.2422 20.2957 13.3193 19.3728 13.3193 18.2344V0.317116Z" fill="#FAFF01"/>
        <path d="M0 4.43968C-9.95234e-08 2.16285 1.84574 0.317115 4.12257 0.317115L13.3191 0.317114C15.5959 0.317114 17.4416 2.16285 17.4416 4.43968L0 4.43968Z" fill="#FAFF01"/>
    </symbol>
    <symbol id="catalog" width="24" height="24" viewBox="0 0 24 24" xmlns="http://www.w3.org/2000/svg">
        <path d="M9.33333 13.3333H1.33333C0.979711 13.3333 0.640573 13.4738 0.390524 13.7239C0.140476 13.9739 0 14.313 0 14.6667V22.6667C0 23.0203 0.140476 23.3594 0.390524 23.6095C0.640573 23.8595 0.979711 24 1.33333 24H9.33333C9.68696 24 10.0261 23.8595 10.2761 23.6095C10.5262 23.3594 10.6667 23.0203 10.6667 22.6667V14.6667C10.6667 14.313 10.5262 13.9739 10.2761 13.7239C10.0261 13.4738 9.68696 13.3333 9.33333 13.3333ZM8 21.3333H2.66667V16H8V21.3333ZM22.6667 0H14.6667C14.313 0 13.9739 0.140476 13.7239 0.390524C13.4738 0.640573 13.3333 0.979711 13.3333 1.33333V9.33333C13.3333 9.68696 13.4738 10.0261 13.7239 10.2761C13.9739 10.5262 14.313 10.6667 14.6667 10.6667H22.6667C23.0203 10.6667 23.3594 10.5262 23.6095 10.2761C23.8595 10.0261 24 9.68696 24 9.33333V1.33333C24 0.979711 23.8595 0.640573 23.6095 0.390524C23.3594 0.140476 23.0203 0 22.6667 0ZM21.3333 8H16V2.66667H21.3333V8ZM22.6667 17.3333H20V14.6667C20 14.313 19.8595 13.9739 19.6095 13.7239C19.3594 13.4738 19.0203 13.3333 18.6667 13.3333C18.313 13.3333 17.9739 13.4738 17.7239 13.7239C17.4738 13.9739 17.3333 14.313 17.3333 14.6667V17.3333H14.6667C14.313 17.3333 13.9739 17.4738 13.7239 17.7239C13.4738 17.9739 13.3333 18.313 13.3333 18.6667C13.3333 19.0203 13.4738 19.3594 13.7239 19.6095C13.9739 19.8595 14.313 20 14.6667 20H17.3333V22.6667C17.3333 23.0203 17.4738 23.3594 17.7239 23.6095C17.9739 23.8595 18.313 24 18.6667 24C19.0203 24 19.3594 23.8595 19.6095 23.6095C19.8595 23.3594 20 23.0203 20 22.6667V20H22.6667C23.0203 20 23.3594 19.8595 23.6095 19.6095C23.8595 19.3594 24 19.0203 24 18.6667C24 18.313 23.8595 17.9739 23.6095 17.7239C23.3594 17.4738 23.0203 17.3333 22.6667 17.3333ZM9.33333 0H1.33333C0.979711 0 0.640573 0.140476 0.390524 0.390524C0.140476 0.640573 0 0.979711 0 1.33333V9.33333C0 9.68696 0.140476 10.0261 0.390524 10.2761C0.640573 10.5262 0.979711 10.6667 1.33333 10.6667H9.33333C9.68696 10.6667 10.0261 10.5262 10.2761 10.2761C10.5262 10.0261 10.6667 9.68696 10.6667 9.33333V1.33333C10.6667 0.979711 10.5262 0.640573 10.2761 0.390524C10.0261 0.140476 9.68696 0 9.33333 0ZM8 8H2.66667V2.66667H8V8Z" fill="white"/>
    </symbol>
    <symbol id="search" width="24" height="24" viewBox="0 0 24 24" xmlns="http://www.w3.org/2000/svg">
        <path d="M23.663 21.9767L19.2137 17.56C20.9408 15.4049 21.7771 12.6695 21.5508 9.91628C21.3245 7.16303 20.0528 4.60118 17.997 2.75751C15.9412 0.913839 13.2578 -0.0715191 10.4983 0.00404582C7.73893 0.0796108 5.11331 1.21035 3.16137 3.16377C1.20944 5.11719 0.0795503 7.74481 0.00404275 10.5063C-0.0714648 13.2678 0.913145 15.9534 2.75542 18.0107C4.59769 20.068 7.15759 21.3407 9.90875 21.5672C12.6599 21.7937 15.3932 20.9567 17.5466 19.2283L21.96 23.645C22.0715 23.7575 22.2042 23.8468 22.3503 23.9077C22.4964 23.9686 22.6532 24 22.8115 24C22.9698 24 23.1266 23.9686 23.2727 23.9077C23.4189 23.8468 23.5515 23.7575 23.663 23.645C23.8792 23.4212 24 23.1221 24 22.8108C24 22.4996 23.8792 22.2005 23.663 21.9767ZM10.8186 19.2283C9.15827 19.2283 7.53518 18.7355 6.15463 17.8124C4.77408 16.8892 3.69807 15.5771 3.06267 14.0419C2.42727 12.5068 2.26102 10.8175 2.58495 9.18784C2.90887 7.55813 3.70842 6.06115 4.88248 4.88619C6.05654 3.71124 7.55239 2.91108 9.18086 2.58691C10.8093 2.26274 12.4973 2.42912 14.0313 3.065C15.5653 3.70088 16.8764 4.77771 17.7988 6.15931C18.7213 7.54091 19.2137 9.16523 19.2137 10.8269C19.2137 13.0551 18.3292 15.192 16.7548 16.7675C15.1804 18.3431 13.0451 19.2283 10.8186 19.2283Z"/>
    </symbol>
    <symbol id="basket" width="28" height="28" viewBox="0 0 28 28" fill="none" xmlns="http://www.w3.org/2000/svg">
        <path d="M16.7965 22.4183C17.1692 22.4183 17.5266 22.2712 17.7901 22.0096C18.0536 21.7479 18.2016 21.3929 18.2016 21.0228V18.232C18.2016 17.8619 18.0536 17.507 17.7901 17.2453C17.5266 16.9836 17.1692 16.8366 16.7965 16.8366C16.4239 16.8366 16.0665 16.9836 15.803 17.2453C15.5395 17.507 15.3915 17.8619 15.3915 18.232V21.0228C15.3915 21.3929 15.5395 21.7479 15.803 22.0096C16.0665 22.2712 16.4239 22.4183 16.7965 22.4183ZM11.1763 22.4183C11.549 22.4183 11.9063 22.2712 12.1698 22.0096C12.4333 21.7479 12.5814 21.3929 12.5814 21.0228V18.232C12.5814 17.8619 12.4333 17.507 12.1698 17.2453C11.9063 16.9836 11.549 16.8366 11.1763 16.8366C10.8037 16.8366 10.4463 16.9836 10.1828 17.2453C9.9193 17.507 9.77127 17.8619 9.77127 18.232V21.0228C9.77127 21.3929 9.9193 21.7479 10.1828 22.0096C10.4463 22.2712 10.8037 22.4183 11.1763 22.4183ZM23.8218 5.6732H21.8828L19.4521 0.858992C19.3778 0.681848 19.2675 0.521822 19.1282 0.388914C18.9888 0.256005 18.8233 0.153072 18.6421 0.0865454C18.4609 0.020019 18.2678 -0.00867047 18.0749 0.00226993C17.882 0.0132103 17.6934 0.0635456 17.521 0.15013C17.3486 0.236714 17.196 0.357687 17.0728 0.505488C16.9495 0.653288 16.8583 0.824741 16.8049 1.00913C16.7514 1.19352 16.7367 1.38689 16.7619 1.57714C16.7871 1.7674 16.8515 1.95045 16.9511 2.11487L18.7355 5.6732H9.23735L11.0218 2.11487C11.1581 1.78961 11.1656 1.42515 11.0426 1.09466C10.9196 0.764175 10.6753 0.492131 10.3587 0.333149C10.0421 0.174167 9.67663 0.140017 9.33572 0.237554C8.99482 0.33509 8.70368 0.557094 8.52077 0.858992L6.09003 5.6732H4.15106C3.15796 5.6882 2.20208 6.051 1.45203 6.69762C0.701971 7.34424 0.205919 8.23314 0.0513589 9.20753C-0.103201 10.1819 0.0936588 11.1792 0.607219 12.0236C1.12078 12.8679 1.91805 13.505 2.85841 13.8225L3.89815 24.2323C4.003 25.2685 4.49297 26.2287 5.27239 26.9254C6.05182 27.622 7.06472 28.0052 8.11331 27.9999H19.8876C20.9362 28.0052 21.9491 27.622 22.7286 26.9254C23.508 26.2287 23.998 25.2685 24.1028 24.2323L25.1425 13.8225C26.085 13.504 26.8835 12.8646 27.3967 12.0175C27.9099 11.1703 28.1046 10.1701 27.9464 9.19405C27.7882 8.21797 27.2873 7.32899 26.5324 6.68456C25.7774 6.04014 24.8172 5.68187 23.8218 5.6732ZM21.2786 23.9532C21.2437 24.2986 21.0804 24.6187 20.8206 24.8509C20.5608 25.0831 20.2231 25.2108 19.8736 25.2091H8.09926C7.74973 25.2108 7.41209 25.0831 7.15229 24.8509C6.89248 24.6187 6.72916 24.2986 6.69421 23.9532L5.69662 14.0457H22.2762L21.2786 23.9532ZM23.8218 11.2549H4.15106C3.77842 11.2549 3.42104 11.1079 3.15754 10.8462C2.89404 10.5845 2.74601 10.2296 2.74601 9.85946C2.74601 9.48937 2.89404 9.13444 3.15754 8.87275C3.42104 8.61106 3.77842 8.46404 4.15106 8.46404H23.8218C24.1944 8.46404 24.5518 8.61106 24.8153 8.87275C25.0788 9.13444 25.2268 9.48937 25.2268 9.85946C25.2268 10.2296 25.0788 10.5845 24.8153 10.8462C24.5518 11.1079 24.1944 11.2549 23.8218 11.2549Z" fill="white"/>
    </symbol>
    <symbol id="profile" width="28" height="28" viewBox="0 0 28 28" fill="none" xmlns="http://www.w3.org/2000/svg">
        <path d="M19.1988 14.9931C20.5781 13.9138 21.5849 12.4338 22.0791 10.759C22.5732 9.0842 22.5302 7.29786 21.956 5.64849C21.3818 3.99913 20.305 2.56876 18.8753 1.55639C17.4456 0.544027 15.7342 0 13.9791 0C12.2241 0 10.5127 0.544027 9.08298 1.55639C7.65329 2.56876 6.57644 3.99913 6.00223 5.64849C5.42803 7.29786 5.38502 9.0842 5.8792 10.759C6.37337 12.4338 7.38016 13.9138 8.75949 14.9931C6.39598 15.9348 4.33374 17.4967 2.79262 19.5123C1.25149 21.528 0.289254 23.9217 0.00848627 26.4384C-0.0118372 26.6222 0.00442949 26.8081 0.0563571 26.9856C0.108285 27.1631 0.194856 27.3287 0.311129 27.4729C0.545954 27.7642 0.887502 27.9507 1.26064 27.9916C1.63378 28.0324 2.00793 27.9241 2.30081 27.6906C2.59368 27.457 2.78127 27.1174 2.82231 26.7463C3.13125 24.0111 4.44264 21.485 6.50592 19.6507C8.5692 17.8163 11.2397 16.8022 14.0073 16.8022C16.7748 16.8022 19.4453 17.8163 21.5086 19.6507C23.5719 21.485 24.8833 24.0111 25.1922 26.7463C25.2305 27.0901 25.3954 27.4076 25.6553 27.6376C25.9151 27.8675 26.2513 27.9937 26.5991 27.9916H26.7539C27.1227 27.9494 27.4598 27.7639 27.6917 27.4756C27.9236 27.1873 28.0315 26.8195 27.992 26.4524C27.7099 23.9286 26.7425 21.5287 25.1934 19.5099C23.6444 17.4912 21.5721 15.9298 19.1988 14.9931ZM13.9791 13.9996C12.8661 13.9996 11.778 13.6714 10.8526 13.0564C9.92711 12.4414 9.2058 11.5673 8.77986 10.5446C8.35392 9.52197 8.24247 8.39664 8.45961 7.31097C8.67676 6.22531 9.21274 5.22806 9.99978 4.44533C10.7868 3.66261 11.7896 3.12957 12.8812 2.91362C13.9729 2.69766 15.1044 2.8085 16.1327 3.23211C17.1611 3.65571 18.04 4.37306 18.6584 5.29345C19.2767 6.21383 19.6068 7.29591 19.6068 8.40285C19.6068 9.88721 19.0139 11.3108 17.9585 12.3604C16.9031 13.41 15.4717 13.9996 13.9791 13.9996Z" fill="white"/>
    </symbol>
    <symbol id="close" xmlns="http://www.w3.org/2000/svg" x="0px" y="0px" viewBox="0 0 24 24">
        <path d="M 4.9902344 3.9902344 A 1.0001 1.0001 0 0 0 4.2929688 5.7070312 L 10.585938 12 L 4.2929688 18.292969 A 1.0001 1.0001 0 1 0 5.7070312 19.707031 L 12 13.414062 L 18.292969 19.707031 A 1.0001 1.0001 0 1 0 19.707031 18.292969 L 13.414062 12 L 19.707031 5.7070312 A 1.0001 1.0001 0 0 0 18.980469 3.9902344 A 1.0001 1.0001 0 0 0 18.292969 4.2929688 L 12 10.585938 L 5.7070312 4.2929688 A 1.0001 1.0001 0 0 0 4.9902344 3.9902344 z"></path>
    </symbol>


</svg>
